# This file uses centimeters as units for non-parametric coordinates.

mtllib bed.mtl
g default
v 29.207318 0.000000 0.866804
v 31.196335 0.000000 2.594128
v 29.207318 0.910859 0.866804
v 31.196335 0.910859 2.594128
v 30.298999 0.910859 -0.390268
v 32.288014 0.910859 1.337056
v 30.298999 0.000000 -0.390268
v 32.288014 0.000000 1.337056
v 32.040444 1.852725 1.854823
v 32.205596 1.684484 1.664653
v 32.336661 1.560846 1.513730
v 32.420809 1.405053 1.416833
v 32.449806 1.232355 1.383446
v 31.264938 1.232355 2.747819
v 31.293934 1.405053 2.714432
v 31.378083 1.560845 2.617535
v 31.509146 1.684483 2.466613
v 31.674298 1.852725 2.276441
v 31.857372 1.880077 2.065633
v 31.925247 1.852725 1.754784
v 32.090397 1.684484 1.564610
v 32.221464 1.560846 1.413691
v 32.305613 1.405053 1.316792
v 32.334608 1.232355 1.283401
v 31.149740 1.232355 2.647778
v 31.178736 1.405053 2.614389
v 31.262886 1.560845 2.517493
v 31.393951 1.684483 2.366570
v 31.559102 1.852725 2.176400
v 31.742173 1.880077 1.965592
v 31.857372 1.146446 2.065633
v 31.742173 1.146446 1.965592
v 32.449806 0.000000 1.383446
v 32.334608 0.000000 1.283401
v 31.264938 0.000000 2.747819
v 31.149740 0.000000 2.647778
v 31.857372 0.000000 2.065633
v 31.742173 0.000000 1.965592
vt 0.375000 0.000000
vt 0.625000 0.000000
vt 0.625000 0.250000
vt 0.375000 0.250000
vt 0.625000 0.500000
vt 0.375000 0.500000
vt 0.625000 0.750000
vt 0.375000 0.750000
vt 0.625000 1.000000
vt 0.375000 1.000000
vt 0.875000 0.000000
vt 0.875000 0.250000
vt 0.125000 0.000000
vt 0.125000 0.250000
vt 0.375000 0.312500
vt 0.387500 0.312500
vt 0.387500 0.688440
vt 0.375000 0.688440
vt 0.400000 0.312500
vt 0.400000 0.688440
vt 0.412500 0.312500
vt 0.412500 0.688440
vt 0.425000 0.312500
vt 0.425000 0.688440
vt 0.550000 0.312500
vt 0.562500 0.312500
vt 0.562500 0.688440
vt 0.550000 0.688440
vt 0.575000 0.312500
vt 0.575000 0.688440
vt 0.587500 0.312500
vt 0.587500 0.688440
vt 0.600000 0.312500
vt 0.600000 0.688440
vt 0.612500 0.312500
vt 0.612500 0.688440
vt 0.625000 0.312500
vt 0.625000 0.688440
vt 0.626409 0.064408
vt 0.648603 0.107966
vt 0.500000 0.150000
vt 0.591842 0.029841
vt 0.548284 0.007647
vt 0.500000 -0.000000
vt 0.548284 0.304853
vt 0.500000 0.312500
vt 0.591841 0.282659
vt 0.626409 0.248091
vt 0.648603 0.204534
vt 0.656250 0.156250
vt 0.648603 0.892034
vt 0.626409 0.935591
vt 0.500000 0.837500
vt 0.591841 0.970159
vt 0.548284 0.992353
vt 0.500000 1.000000
vt 0.500000 0.687500
vt 0.548284 0.695147
vt 0.591842 0.717341
vt 0.626409 0.751908
vt 0.648603 0.795466
vt 0.656250 0.843750
vt 0.425000 0.312500
vt 0.425000 0.688440
vt 0.525000 0.687970
vt 0.525000 0.312500
vt 0.500000 0.150000
vt 0.500000 -0.000000
vt 0.500000 1.000000
vt 0.500000 0.837500
vn -0.655691 0.000000 0.755029
vn -0.655691 0.000000 0.755029
vn -0.655691 0.000000 0.755029
vn -0.655691 0.000000 0.755029
vn -0.000000 1.000000 0.000000
vn -0.000000 1.000000 0.000000
vn -0.000000 1.000000 0.000000
vn -0.000000 1.000000 0.000000
vn 0.655691 0.000000 -0.755029
vn 0.655691 0.000000 -0.755029
vn 0.655691 0.000000 -0.755029
vn 0.655691 0.000000 -0.755029
vn 0.000000 -1.000000 0.000000
vn 0.000000 -1.000000 0.000000
vn 0.000000 -1.000000 0.000000
vn 0.000000 -1.000000 0.000000
vn 0.755030 0.000000 0.655691
vn 0.755030 0.000000 0.655691
vn 0.755030 0.000000 0.655691
vn 0.755030 0.000000 0.655691
vn -0.755029 0.000000 -0.655691
vn -0.755029 0.000000 -0.655691
vn -0.755029 0.000000 -0.655691
vn -0.755029 0.000000 -0.655691
vn 0.226607 0.938382 -0.260939
vn 0.355828 0.839941 -0.409737
vn 0.355828 0.839942 -0.409737
vn 0.226606 0.938382 -0.260938
vn 0.425044 0.761437 -0.489439
vn 0.425044 0.761438 -0.489439
vn 0.580479 0.465046 -0.668414
vn 0.580479 0.465045 -0.668414
vn 0.635207 0.248059 -0.731423
vn 0.635207 0.248059 -0.731423
vn -0.635195 0.248074 0.731428
vn -0.580476 0.465048 0.668414
vn -0.580476 0.465048 0.668414
vn -0.635195 0.248074 0.731428
vn -0.425052 0.761434 0.489438
vn -0.425051 0.761434 0.489438
vn -0.355834 0.839941 0.409733
vn -0.355834 0.839941 0.409733
vn -0.226610 0.938382 0.260936
vn -0.226609 0.938382 0.260935
vn -0.000001 1.000000 -0.000000
vn -0.000002 1.000000 0.000000
vn 0.755028 -0.000001 0.655693
vn 0.755028 0.000001 0.655693
vn 0.755028 0.000001 0.655692
vn 0.755030 -0.000003 0.655690
vn 0.755028 0.000005 0.655692
vn 0.755027 0.000011 0.655693
vn 0.755029 -0.000005 0.655692
vn 0.755028 -0.000010 0.655693
vn 0.755030 0.000003 0.655690
vn 0.755029 0.000003 0.655691
vn 0.755028 0.000001 0.655693
vn 0.755029 0.000000 0.655691
vn -0.755031 0.000002 -0.655690
vn -0.755028 -0.000003 -0.655692
vn -0.755029 0.000001 -0.655691
vn -0.755027 -0.000002 -0.655694
vn -0.755029 0.000007 -0.655691
vn -0.755030 0.000010 -0.655691
vn -0.755028 0.000000 -0.655693
vn -0.755028 0.000003 -0.655693
vn -0.755029 0.000003 -0.655692
vn -0.755029 -0.000000 -0.655691
vn -0.755029 0.000001 -0.655691
vn -0.755029 0.000000 -0.655691
vn 0.655706 0.000000 -0.755017
vn 0.655706 0.000000 -0.755017
vn 0.655706 0.000000 -0.755017
vn 0.655706 0.000000 -0.755017
vn -0.655686 0.000000 0.755033
vn -0.655686 0.000000 0.755033
vn -0.655686 0.000000 0.755033
vn -0.655686 0.000000 0.755033
vn 0.755029 0.000000 0.655692
vn 0.755029 0.000000 0.655692
vn 0.755029 0.000000 0.655692
vn 0.755029 0.000000 0.655692
vn 0.755028 0.000000 0.655692
vn 0.755028 0.000000 0.655692
vn 0.755028 0.000000 0.655692
vn 0.755028 0.000000 0.655692
vn -0.755029 0.000000 -0.655691
vn -0.755029 0.000000 -0.655691
vn -0.755029 0.000000 -0.655691
vn -0.755029 0.000000 -0.655691
vn -0.755029 0.000000 -0.655692
vn -0.755029 0.000000 -0.655692
vn -0.755029 0.000000 -0.655692
vn -0.755029 0.000000 -0.655692
vn 0.000000 -1.000000 0.000000
vn 0.000000 -1.000000 0.000000
vn 0.000000 -1.000000 0.000000
vn 0.000000 -1.000000 0.000000
vn 0.000000 -1.000000 0.000000
vn 0.000000 -1.000000 0.000000
vn 0.000000 -1.000000 0.000000
vn 0.000000 -1.000000 0.000000
s off
g polySurface2266
usemtl lambert3SG
f 1/1/1 2/2/2 4/3/3 3/4/4
f 3/4/5 4/3/6 6/5/7 5/6/8
f 5/6/9 6/5/10 8/7/11 7/8/12
f 7/8/13 8/7/14 2/9/15 1/10/16
f 2/2/17 8/11/18 6/12/19 4/3/20
f 7/13/21 1/1/22 3/4/23 5/14/24
s 1
f 9/15/25 10/16/26 21/17/27 20/18/28
f 10/16/26 11/19/29 22/20/30 21/17/27
f 11/19/29 12/21/31 23/22/32 22/20/30
f 12/21/31 13/23/33 24/24/34 23/22/32
f 14/25/35 15/26/36 26/27/37 25/28/38
f 15/26/36 16/29/39 27/30/40 26/27/37
f 16/29/39 17/31/41 28/32/42 27/30/40
f 17/31/41 18/33/43 29/34/44 28/32/42
f 18/33/43 19/35/45 30/36/46 29/34/44
f 19/35/45 9/37/25 20/38/28 30/36/46
s 3
f 10/39/47 9/40/48 31/41/49
f 11/42/50 10/39/47 31/41/49
f 12/43/51 11/42/50 31/41/49
f 13/44/52 12/43/51 31/41/49
f 15/45/53 14/46/54 31/41/49
f 16/47/55 15/45/53 31/41/49
f 17/48/56 16/47/55 31/41/49
f 18/49/57 17/48/56 31/41/49
f 19/50/58 18/49/57 31/41/49
f 9/40/48 19/50/58 31/41/49
s 5
f 20/51/59 21/52/60 32/53/61
f 21/52/60 22/54/62 32/53/61
f 22/54/62 23/55/63 32/53/61
f 23/55/63 24/56/64 32/53/61
f 25/57/65 26/58/66 32/53/61
f 26/58/66 27/59/67 32/53/61
f 27/59/67 28/60/68 32/53/61
f 28/60/68 29/61/69 32/53/61
f 29/61/69 30/62/70 32/53/61
f 30/62/70 20/51/59 32/53/61
s off
f 24/24/71 13/23/72 33/63/73 34/64/74
f 14/25/75 25/28/76 36/65/77 35/66/78
f 13/44/79 31/41/80 37/67/81 33/68/82
f 31/41/83 14/46/84 35/66/85 37/67/86
f 32/53/87 24/56/88 34/69/89 38/70/90
f 25/57/91 32/53/92 38/70/93 36/65/94
f 37/67/95 35/66/96 36/65/97 38/70/98
f 34/64/99 33/68/100 37/67/101 38/70/102
