# This file uses centimeters as units for non-parametric coordinates.

mtllib mirror.mtl
g default
v -9.023534 0.000000 9.642860
v -9.000000 0.000000 9.642860
v -9.023534 1.000000 9.642860
v -9.000000 1.000000 9.642860
v -9.023534 1.000000 9.000000
v -9.000000 1.000000 9.000000
v -9.023534 0.000000 9.000000
v -9.000000 0.000000 9.000000
v -9.023534 1.000000 9.612026
v -9.000000 1.000000 9.612026
v -9.000000 0.000000 9.612026
v -9.023534 0.000000 9.612026
v -9.023534 1.000000 9.030833
v -9.000000 1.000000 9.030833
v -9.000000 0.000000 9.030833
v -9.023534 0.000000 9.030833
v -9.023534 0.030833 9.642860
v -9.000000 0.030833 9.642860
v -9.000000 0.030833 9.612026
v -9.000000 0.030833 9.030833
v -9.000000 0.030833 9.000000
v -9.023534 0.030833 9.000000
v -9.023534 0.969167 9.642860
v -9.000000 0.969167 9.642860
v -9.000000 0.969167 9.612026
v -9.000000 0.969167 9.030833
v -9.000000 0.969167 9.000000
v -9.023534 0.969167 9.000000
v -9.023534 0.043344 9.642860
v -9.000000 0.043344 9.642860
v -9.000000 0.043344 9.612026
v -9.000000 0.043344 9.030833
v -9.000000 0.043344 9.000000
v -9.023534 0.043344 9.000000
v -9.023534 0.956655 9.642860
v -9.000000 0.956655 9.642860
v -9.000000 0.956656 9.612026
v -9.000000 0.956656 9.030833
v -9.000000 0.956656 9.000000
v -9.023534 0.956656 9.000000
v -9.023534 1.000000 9.599515
v -9.000000 1.000000 9.599515
v -9.000000 0.969167 9.599515
v -9.000000 0.956656 9.599515
v -9.000000 0.043344 9.599515
v -9.000000 0.030833 9.599515
v -9.000000 0.000000 9.599516
v -9.023534 0.000000 9.599516
v -9.023534 0.043344 9.599516
v -9.023534 0.956655 9.599515
v -9.023534 1.000000 9.043344
v -9.000000 1.000000 9.043344
v -9.000000 0.969167 9.043344
v -9.000000 0.956656 9.043344
v -9.000000 0.043344 9.043344
v -9.000000 0.030833 9.043344
v -9.000000 0.000000 9.043344
v -9.023534 0.000000 9.043344
v -9.023534 0.043344 9.043344
v -9.023534 0.956655 9.043344
v -9.035472 0.969167 9.000000
v -9.035472 0.969167 9.030833
v -9.035472 1.000000 9.030833
v -9.035472 1.000000 9.000000
v -9.035472 0.969167 9.612026
v -9.035472 1.000000 9.612026
v -9.035472 0.969167 9.642860
v -9.035472 1.000000 9.642860
v -9.035472 0.969167 9.043344
v -9.035472 1.000000 9.043344
v -9.035472 0.000000 9.000000
v -9.035472 0.000000 9.030833
v -9.035472 0.030833 9.030833
v -9.035472 0.030833 9.000000
v -9.035472 0.000000 9.043344
v -9.035472 0.030833 9.043344
v -9.035472 0.030833 9.612026
v -9.035472 0.030833 9.642860
v -9.035472 0.000000 9.612026
v -9.035472 0.000000 9.642860
v -9.035472 0.956656 9.000000
v -9.035472 0.956655 9.030833
v -9.035472 0.956655 9.043344
v -9.035472 0.956655 9.612026
v -9.035472 0.956655 9.642860
v -9.035472 0.043344 9.030833
v -9.035472 0.043344 9.000000
v -9.035472 0.043344 9.043344
v -9.035472 0.043344 9.612026
v -9.035472 0.043344 9.642860
v -9.035472 0.030833 9.599516
v -9.035472 0.000000 9.599516
v -9.035472 0.043344 9.599516
v -9.035472 0.956655 9.599515
v -9.035472 0.969167 9.599515
v -9.035472 1.000000 9.599515
v -9.046620 0.969167 9.000000
v -9.046620 0.969167 9.030833
v -9.046620 1.000000 9.030833
v -9.046620 1.000000 9.000000
v -9.046620 0.969167 9.612026
v -9.046620 1.000000 9.612026
v -9.046620 0.969167 9.642860
v -9.046620 1.000000 9.642860
v -9.046620 0.969167 9.043344
v -9.046620 1.000000 9.043344
v -9.046620 0.000000 9.000000
v -9.046620 0.000000 9.030833
v -9.046620 0.030833 9.030833
v -9.046620 0.030833 9.000000
v -9.046620 0.000000 9.043344
v -9.046620 0.030833 9.043344
v -9.046620 0.030833 9.612026
v -9.046620 0.030833 9.642860
v -9.046620 0.000000 9.612026
v -9.046620 0.000000 9.642860
v -9.046620 0.956656 9.000000
v -9.046620 0.956655 9.030833
v -9.046620 0.956655 9.612026
v -9.046620 0.956655 9.642860
v -9.046620 0.043344 9.030833
v -9.046620 0.043344 9.000000
v -9.046620 0.043344 9.612026
v -9.046620 0.043344 9.642860
v -9.046620 0.030833 9.599516
v -9.046620 0.000000 9.599516
v -9.046620 0.969167 9.599515
v -9.046620 1.000000 9.599515
vt 0.375000 0.000000
vt 0.625000 0.000000
vt 0.375000 0.250000
vt 0.625000 0.250000
vt 0.375000 0.500000
vt 0.625000 0.500000
vt 0.375000 0.750000
vt 0.625000 0.750000
vt 0.375000 1.000000
vt 0.625000 1.000000
vt 0.875000 0.000000
vt 0.875000 0.250000
vt 0.125000 0.000000
vt 0.125000 0.250000
vt 0.367292 0.250000
vt 0.375000 0.257708
vt 0.625000 0.257708
vt 0.632708 0.250000
vt 0.625000 0.992292
vt 0.632708 0.000000
vt 0.367292 0.000000
vt 0.375000 0.992292
vt 0.132708 0.250000
vt 0.375000 0.492292
vt 0.625000 0.492292
vt 0.867292 0.250000
vt 0.625000 0.757708
vt 0.867292 0.000000
vt 0.132708 0.000000
vt 0.375000 0.757708
vt 0.375000 0.007708
vt 0.625000 0.007708
vt 0.632708 0.007708
vt 0.867292 0.007708
vt 0.625000 0.742292
vt 0.875000 0.007708
vt 0.125000 0.007708
vt 0.375000 0.742292
vt 0.132708 0.007708
vt 0.367292 0.007708
vt 0.375000 0.242292
vt 0.625000 0.242292
vt 0.632708 0.242292
vt 0.867292 0.242292
vt 0.625000 0.507708
vt 0.875000 0.242292
vt 0.125000 0.242292
vt 0.375000 0.507708
vt 0.132708 0.242292
vt 0.367292 0.242292
vt 0.375000 0.010836
vt 0.625000 0.010836
vt 0.632708 0.010836
vt 0.867292 0.010836
vt 0.625000 0.739164
vt 0.875000 0.010836
vt 0.125000 0.010836
vt 0.375000 0.739164
vt 0.132708 0.010836
vt 0.367292 0.010836
vt 0.375000 0.239164
vt 0.625000 0.239164
vt 0.632708 0.239164
vt 0.867292 0.239164
vt 0.625000 0.510836
vt 0.875000 0.239164
vt 0.125000 0.239164
vt 0.375000 0.510836
vt 0.132708 0.239164
vt 0.367292 0.239164
vt 0.364164 0.250000
vt 0.375000 0.260836
vt 0.625000 0.260836
vt 0.635836 0.250000
vt 0.635836 0.242292
vt 0.635836 0.239164
vt 0.635836 0.010836
vt 0.635836 0.007708
vt 0.625000 0.989164
vt 0.635836 0.000000
vt 0.364164 0.000000
vt 0.375000 0.989164
vt 0.364164 0.007708
vt 0.364164 0.010836
vt 0.364164 0.239164
vt 0.364164 0.242292
vt 0.135836 0.250000
vt 0.375000 0.489164
vt 0.625000 0.489164
vt 0.864164 0.250000
vt 0.864164 0.242292
vt 0.864164 0.239164
vt 0.864164 0.010836
vt 0.864164 0.007708
vt 0.625000 0.760836
vt 0.864164 0.000000
vt 0.135836 0.000000
vt 0.375000 0.760836
vt 0.135836 0.007708
vt 0.135836 0.010836
vt 0.135836 0.239164
vt 0.135836 0.242292
vt 0.132708 0.250000
vt 0.125000 0.250000
vt 0.125000 0.242292
vt 0.375000 0.242292
vt 0.375000 0.250000
vt 0.367292 0.250000
vt 0.135836 0.250000
vt 0.125000 0.000000
vt 0.132708 0.000000
vt 0.125000 0.007708
vt 0.135836 0.000000
vt 0.367292 0.000000
vt 0.375000 0.000000
vt 0.375000 0.007708
vt 0.125000 0.239164
vt 0.375000 0.239164
vt 0.125000 0.010836
vt 0.375000 0.010836
vt 0.135836 0.010836
vt 0.135836 0.239164
vt 0.364164 0.000000
vt 0.364164 0.239164
vt 0.364164 0.010836
vt 0.364164 0.250000
vt 0.132708 0.250000
vt 0.125000 0.250000
vt 0.125000 0.242292
vt 0.375000 0.242292
vt 0.375000 0.250000
vt 0.367292 0.250000
vt 0.132708 0.242292
vt 0.135836 0.242292
vt 0.135836 0.250000
vt 0.125000 0.000000
vt 0.132708 0.000000
vt 0.125000 0.007708
vt 0.135836 0.007708
vt 0.132708 0.007708
vt 0.135836 0.000000
vt 0.367292 0.000000
vt 0.375000 0.000000
vt 0.375000 0.007708
vt 0.132708 0.239164
vt 0.125000 0.239164
vt 0.367292 0.242292
vt 0.367292 0.239164
vt 0.375000 0.239164
vt 0.132708 0.010836
vt 0.125000 0.010836
vt 0.367292 0.010836
vt 0.367292 0.007708
vt 0.375000 0.010836
vt 0.364164 0.007708
vt 0.364164 0.000000
vt 0.364164 0.242292
vt 0.364164 0.250000
vn 0.000000 0.000000 1.000000
vn 0.000000 0.000000 1.000000
vn 0.000000 0.000000 1.000000
vn 0.000000 0.000000 1.000000
vn 0.000000 1.000000 0.000000
vn 0.000000 1.000000 0.000000
vn 0.000000 1.000000 0.000000
vn 0.000000 1.000000 0.000000
vn 0.000000 0.000000 -1.000000
vn 0.000000 0.000000 -1.000000
vn 0.000000 0.000000 -1.000000
vn 0.000000 0.000000 -1.000000
vn 0.000000 -1.000000 0.000000
vn 0.000000 -1.000000 0.000000
vn 0.000000 -1.000000 0.000000
vn 0.000000 -1.000000 0.000000
vn 1.000000 0.000000 0.000000
vn 1.000000 0.000000 0.000000
vn 1.000000 0.000000 0.000000
vn 1.000000 0.000000 0.000000
vn -1.000000 0.000000 0.000000
vn -1.000000 0.000000 0.000000
vn -1.000000 0.000000 0.000000
vn -1.000000 0.000000 0.000000
vn 0.000000 1.000000 0.000000
vn 0.000000 1.000000 0.000000
vn 0.000000 1.000000 0.000000
vn 0.000000 1.000000 0.000000
vn 1.000000 0.000000 0.000000
vn 1.000000 0.000000 0.000000
vn 1.000000 0.000000 0.000000
vn 1.000000 0.000000 0.000000
vn 0.000000 -1.000000 0.000000
vn 0.000000 -1.000000 0.000000
vn 0.000000 -1.000000 0.000000
vn 0.000000 -1.000000 0.000000
vn -1.000000 0.000000 0.000000
vn -1.000000 0.000000 0.000000
vn -1.000000 0.000000 0.000000
vn -1.000000 0.000000 0.000000
vn 0.000000 1.000000 0.000000
vn 0.000000 1.000000 0.000000
vn 1.000000 0.000000 0.000000
vn 1.000000 0.000000 0.000000
vn 0.000000 -1.000000 0.000000
vn 0.000000 -1.000000 0.000000
vn -1.000000 0.000000 0.000000
vn -1.000000 0.000000 0.000000
vn 0.000000 0.000000 1.000000
vn 0.000000 0.000000 1.000000
vn 0.000000 0.000000 1.000000
vn 0.000000 0.000000 1.000000
vn 1.000000 0.000000 0.000000
vn 1.000000 0.000000 0.000000
vn 1.000000 0.000000 0.000000
vn 1.000000 0.000000 0.000000
vn 1.000000 0.000000 0.000000
vn 1.000000 0.000000 0.000000
vn 1.000000 0.000000 0.000000
vn 1.000000 0.000000 0.000000
vn 1.000000 0.000000 0.000000
vn 1.000000 0.000000 0.000000
vn 0.000000 0.000000 -1.000000
vn 0.000000 0.000000 -1.000000
vn 0.000000 0.000000 -1.000000
vn 0.000000 0.000000 -1.000000
vn -1.000000 0.000000 0.000000
vn -1.000000 0.000000 0.000000
vn -1.000000 0.000000 0.000000
vn -1.000000 0.000000 0.000000
vn -1.000000 0.000000 0.000000
vn -1.000000 0.000000 0.000000
vn -1.000000 0.000000 0.000000
vn -1.000000 0.000000 0.000000
vn -1.000000 0.000000 0.000000
vn -1.000000 0.000000 0.000000
vn 0.000000 0.000000 1.000000
vn 0.000000 0.000000 1.000000
vn 1.000000 0.000000 0.000000
vn 1.000000 0.000000 0.000000
vn 1.000000 0.000000 0.000000
vn 1.000000 0.000000 0.000000
vn 1.000000 0.000000 0.000000
vn 0.000000 0.000000 -1.000000
vn 0.000000 0.000000 -1.000000
vn -1.000000 0.000000 0.000000
vn -1.000000 0.000000 0.000000
vn -1.000000 0.000000 0.000000
vn -1.000000 0.000000 0.000000
vn -1.000000 0.000000 0.000000
vn -1.000000 0.000000 0.000000
vn -1.000000 0.000000 0.000000
vn -1.000000 0.000000 0.000000
vn 0.000000 0.000000 1.000000
vn 0.000000 0.000000 1.000000
vn 1.000000 0.000000 0.000000
vn 1.000000 0.000000 0.000000
vn 1.000000 0.000000 0.000000
vn 1.000000 0.000000 0.000000
vn 1.000000 0.000000 0.000000
vn 0.000000 0.000000 -1.000000
vn 0.000000 0.000000 -1.000000
vn -1.000000 0.000000 0.000000
vn -1.000000 0.000000 0.000000
vn -1.000000 0.000000 0.000000
vn -1.000000 0.000000 0.000000
vn -1.000000 0.000000 0.000000
vn -1.000000 0.000000 0.000000
vn -1.000000 0.000000 0.000000
vn -1.000000 0.000000 0.000000
vn 0.000000 1.000000 0.000000
vn 0.000000 1.000000 0.000000
vn 1.000000 0.000000 0.000000
vn 1.000000 0.000000 0.000000
vn 1.000000 0.000000 0.000000
vn 1.000000 0.000000 0.000000
vn 1.000000 0.000000 0.000000
vn 1.000000 0.000000 0.000000
vn 0.000000 -1.000000 0.000000
vn 0.000000 -1.000000 0.000000
vn -1.000000 0.000000 0.000000
vn -1.000000 0.000000 0.000000
vn -1.000000 0.000000 0.000000
vn -1.000000 0.000000 0.000000
vn -1.000000 0.000000 0.000000
vn -1.000000 0.000000 0.000000
vn -1.000000 0.000000 0.000000
vn -1.000000 0.000000 0.000000
vn -1.000000 0.000000 0.000000
vn -1.000000 0.000000 0.000000
vn -1.000000 0.000000 0.000000
vn -1.000000 0.000000 0.000000
vn -1.000000 0.000000 0.000000
vn -1.000000 0.000000 0.000000
vn -1.000000 0.000000 0.000000
vn -1.000000 0.000000 0.000000
vn 0.000000 1.000000 0.000000
vn 0.000000 1.000000 0.000000
vn 0.000000 1.000000 0.000000
vn 0.000000 1.000000 0.000000
vn 0.000000 0.000000 -1.000000
vn 0.000000 0.000000 -1.000000
vn 0.000000 0.000000 -1.000000
vn 0.000000 0.000000 -1.000000
vn 0.000000 0.000000 1.000000
vn 0.000000 0.000000 1.000000
vn 0.000000 0.000000 1.000000
vn 0.000000 0.000000 1.000000
vn 0.000000 1.000000 0.000000
vn 0.000000 1.000000 0.000000
vn 0.000000 1.000000 0.000000
vn 0.000000 1.000000 0.000000
vn 0.000000 1.000000 0.000000
vn 0.000000 1.000000 0.000000
vn 0.000000 1.000000 0.000000
vn 0.000000 -1.000000 0.000000
vn 0.000000 -1.000000 0.000000
vn 0.000000 -1.000000 0.000000
vn 0.000000 -1.000000 0.000000
vn 0.000000 0.000000 -1.000000
vn 0.000000 0.000000 -1.000000
vn 0.000000 0.000000 -1.000000
vn 0.000000 0.000000 -1.000000
vn 0.000000 -1.000000 0.000000
vn 0.000000 -1.000000 0.000000
vn 0.000000 -1.000000 0.000000
vn 0.000000 -1.000000 0.000000
vn 0.000000 -1.000000 0.000000
vn 0.000000 -1.000000 0.000000
vn 0.000000 -1.000000 0.000000
vn 0.000000 0.000000 1.000000
vn 0.000000 0.000000 1.000000
vn 0.000000 0.000000 1.000000
vn 0.000000 0.000000 1.000000
vn 0.000000 0.000000 -1.000000
vn 0.000000 0.000000 -1.000000
vn 0.000000 0.000000 -1.000000
vn 0.000000 0.000000 1.000000
vn 0.000000 0.000000 1.000000
vn 0.000000 0.000000 1.000000
vn 0.000000 0.000000 -1.000000
vn 0.000000 0.000000 -1.000000
vn 0.000000 0.000000 -1.000000
vn 0.000000 0.000000 1.000000
vn 0.000000 0.000000 1.000000
vn 0.000000 0.000000 1.000000
vn 0.000000 0.000000 -1.000000
vn 0.000000 0.000000 -1.000000
vn 0.000000 0.000000 1.000000
vn 0.000000 0.000000 1.000000
vn 0.000000 0.000000 1.000000
vn 0.000000 0.000000 1.000000
vn 0.000000 0.000000 1.000000
vn 0.000000 0.000000 1.000000
vn 0.000000 -1.000000 0.000000
vn 0.000000 -1.000000 0.000000
vn 0.000000 -1.000000 0.000000
vn 0.000000 -0.000001 -1.000000
vn 0.000000 -0.000001 -1.000000
vn 0.000000 -0.000001 -1.000000
vn 0.000000 -0.000001 -1.000000
vn 0.000000 1.000000 0.000000
vn 0.000000 1.000000 0.000000
vn 0.000000 1.000000 0.000000
vn 0.000000 -1.000000 0.000000
vn 0.000000 -1.000000 0.000000
vn 0.000000 1.000000 0.000000
vn 0.000000 1.000000 0.000000
vn 0.000000 1.000000 0.000000
vn 0.000000 1.000000 0.000000
vn 0.000000 -1.000000 0.000000
vn 0.000000 -1.000000 0.000000
vn 0.000000 -1.000000 0.000000
vn 0.000000 -1.000000 0.000000
vn 0.000000 1.000000 0.000000
vn 0.000000 1.000000 0.000000
vn 0.000000 1.000000 0.000000
vn 0.000000 1.000000 0.000000
vn 0.000000 0.000000 -1.000000
vn 0.000000 0.000000 -1.000000
vn 0.000000 0.000000 1.000000
vn 0.000000 0.000000 1.000000
vn 0.000000 1.000000 0.000000
vn 0.000000 1.000000 0.000000
vn 0.000000 -1.000000 0.000000
vn 0.000000 -1.000000 0.000000
vn 0.000000 -1.000000 0.000000
vn 0.000000 -1.000000 0.000000
vn 0.000000 1.000000 0.000000
vn 0.000000 -1.000000 0.000000
vn 0.000000 -1.000000 0.000000
vn 0.000000 0.000000 -1.000000
vn 0.000000 0.000000 -1.000000
vn 0.000000 1.000000 0.000000
vn 0.000000 1.000000 0.000000
vn 0.000000 1.000000 0.000000
vn 0.000000 1.000000 0.000000
vn 0.000000 -1.000000 0.000000
vn 0.000000 -1.000000 0.000000
vn 0.000000 -1.000000 0.000000
vn 0.000000 0.000000 1.000000
vn 0.000000 0.000000 1.000000
vn 0.000000 0.000000 1.000000
vn 0.000000 0.000000 1.000000
vn 0.000000 0.000000 1.000000
vn 0.000000 0.000000 1.000000
vn 0.000000 0.000000 -1.000000
vn 0.000000 0.000000 -1.000000
vn 0.000000 0.000000 -1.000000
vn 0.000000 0.000000 -1.000000
vn 0.000000 0.000000 -1.000000
vn 0.000000 0.000000 1.000000
vn 0.000000 0.000000 1.000000
vn 0.000000 0.000000 1.000000
vn 0.000000 0.000000 1.000000
vn 0.000000 0.000000 1.000000
vn 0.000000 0.000000 -1.000000
vn 0.000000 0.000000 -1.000000
vn 0.000000 0.000000 -1.000000
vn 0.000000 0.000000 -1.000000
vn 0.000000 0.000000 -1.000000
vn 0.000000 0.000000 1.000000
vn 0.000000 1.000000 0.000000
vn 0.000000 1.000000 0.000000
vn 0.000000 1.000000 0.000000
vn 0.000000 1.000000 0.000000
vn 0.000000 -1.000000 0.000000
vn 0.000000 -1.000000 0.000000
vn 0.000000 -1.000000 0.000000
vn 0.000000 -1.000000 0.000000
vn 0.000000 -1.000000 0.000000
vn 0.000000 1.000000 0.000000
s 1
g pCube72
usemtl lambert3SG
f 23/41/1 24/42/2 4/4/3 3/3/4
s 2
f 13/24/5 14/25/6 6/6/7 5/5/8
s 3
f 5/5/9 6/6/10 27/45/11 28/48/12
s 4
f 7/7/13 8/8/14 15/27/15 16/30/16
s 5
f 14/26/17 26/44/18 27/46/19 6/12/20
s 6
f 97/129/21 98/133/22 99/127/23 100/128/24
s 2
f 3/3/25 4/4/26 10/17/27 9/16/28
s 5
f 24/42/29 25/43/30 10/18/31 4/4/32
s 4
f 12/22/33 11/19/34 2/10/35 1/9/36
s 6
f 102/132/37 101/147/38 103/130/39 104/131/40
s 2
f 51/88/41 52/89/42 14/25/6 13/24/5
s 5
f 52/90/43 53/91/44 26/44/18 14/26/17
s 4
f 16/30/16 15/27/15 57/95/45 58/98/46
s 6
f 99/127/23 98/133/22 105/134/47 106/135/48
s 1
f 1/1/49 2/2/50 18/32/51 17/31/52
s 5
f 2/2/53 11/20/54 19/33/55 18/32/56
f 20/34/57 56/94/58 57/96/59 15/28/60
f 21/36/61 20/34/57 15/28/60 8/11/62
s 3
f 22/38/63 21/35/64 8/8/65 7/7/66
s 6
f 107/136/67 108/137/68 109/140/69 110/138/70
f 111/141/71 112/139/72 109/140/69 108/137/68
f 114/144/73 113/153/74 115/142/75 116/143/76
s 1
f 35/61/77 36/62/78 24/42/2 23/41/1
s 5
f 36/62/79 37/63/80 25/43/30 24/42/29
f 26/44/18 53/91/44 54/92/81 38/64/82
f 27/46/19 26/44/18 38/64/82 39/66/83
s 3
f 28/48/12 27/45/11 39/65/84 40/68/85
s 6
f 117/146/86 118/145/87 98/133/22 97/129/21
s 17
f 83/122/88 69/102/89 62/49/90 82/69/91
s 6
f 103/130/39 101/147/38 119/148/92 120/149/93
s 1
f 17/31/52 18/32/51 30/52/94 29/51/95
s 5
f 18/32/56 19/33/55 31/53/96 30/52/97
f 32/54/98 55/93/99 56/94/58 20/34/57
f 33/56/100 32/54/98 20/34/57 21/36/61
s 3
f 34/58/101 33/55/102 21/35/64 22/38/63
s 6
f 110/138/70 109/140/69 121/150/103 122/151/104
s 17
f 76/99/105 88/121/106 86/59/107 73/39/108
s 6
f 124/154/109 123/152/110 113/153/74 114/144/73
s 1
f 29/51/95 30/52/94 36/62/78 35/61/77
s 5
f 30/52/97 31/53/96 37/63/80 36/62/79
f 38/64/82 54/92/81 55/93/99 32/54/98
f 39/66/83 38/64/82 32/54/98 33/56/100
s 3
f 40/68/85 39/65/84 33/55/102 34/58/101
s 6
f 122/151/104 121/150/103 118/145/87 117/146/86
s 17
f 88/121/106 83/122/88 82/69/91 86/59/107
s 6
f 120/149/93 119/148/92 123/152/110 124/154/109
s 2
f 9/16/28 10/17/27 42/73/111 41/72/112
s 5
f 10/18/31 25/43/30 43/75/113 42/74/114
f 44/76/115 43/75/113 25/43/30 37/63/80
f 45/77/116 44/76/115 37/63/80 31/53/96
f 46/78/117 45/77/116 31/53/96 19/33/55
f 47/80/118 46/78/117 19/33/55 11/20/54
s 4
f 48/82/119 47/79/120 11/19/34 12/22/33
s 6
f 113/153/74 125/155/121 126/156/122 115/142/75
s 17
f 89/60/123 93/125/124 91/83/125 77/40/126
f 84/70/127 94/124/128 93/125/124 89/60/123
f 65/50/129 95/86/130 94/124/128 84/70/127
s 6
f 128/158/131 127/157/132 101/147/38 102/132/37
s 2
f 41/72/112 42/73/111 52/89/42 51/88/41
s 5
f 42/74/114 43/75/113 53/91/44 52/90/43
f 54/92/81 53/91/44 43/75/113 44/76/115
f 55/93/99 54/92/81 44/76/115 45/77/116
f 56/94/58 55/93/99 45/77/116 46/78/117
f 57/96/59 56/94/58 46/78/117 47/80/118
s 4
f 58/98/46 57/95/45 47/79/120 48/82/119
s 6
f 126/156/122 125/155/121 112/139/72 111/141/71
s 17
f 91/83/125 93/125/124 88/121/106 76/99/105
s off
usemtl phong2SG
f 49/84/133 50/85/134 60/101/135 59/100/136
s 17
usemtl lambert3SG
f 94/124/128 95/86/130 69/102/89 83/122/88
s 6
f 106/135/48 105/134/47 127/157/132 128/158/131
s 20
f 13/23/137 5/14/138 64/104/139 63/103/140
s 21
f 5/14/141 28/47/142 61/105/143 64/104/144
s 22
f 23/41/145 3/3/146 68/107/147 67/106/148
s 20
f 3/3/149 9/15/150 66/108/151 68/107/152
f 51/87/153 13/23/154 63/103/140 70/109/155
s 25
f 7/13/156 16/29/157 72/111/158 71/110/159
s 21
f 22/37/160 7/13/161 71/110/162 74/112/163
s 25
f 16/29/164 58/97/165 75/113/166 72/111/158
f 12/21/167 1/1/168 80/115/169 79/114/170
s 22
f 1/1/171 17/31/172 78/116/173 80/115/174
s 21
f 28/47/175 40/67/176 81/117/177 61/105/143
s 22
f 35/61/178 23/41/179 67/106/148 85/118/180
s 21
f 34/57/181 22/37/182 74/112/163 87/119/183
s 22
f 17/31/184 29/51/185 90/120/186 78/116/173
s 21
f 40/67/187 34/57/188 87/119/183 81/117/177
s off
f 59/100/189 60/101/190 83/122/191 88/121/192
s 22
f 29/51/193 35/61/194 85/118/180 90/120/186
s 25
f 48/81/195 12/21/196 79/114/170 92/123/197
s off
f 50/85/198 49/84/199 93/125/200 94/124/201
s 20
f 9/15/202 41/71/203 96/126/204 66/108/151
s 25
f 58/97/205 48/81/206 92/123/197 75/113/166
s off
f 49/84/207 59/100/208 88/121/209 93/125/210
f 60/101/211 50/85/212 94/124/213 83/122/214
s 20
f 41/71/215 51/87/216 70/109/155 96/126/204
f 63/103/140 64/104/139 100/128/217 99/127/218
s 21
f 64/104/144 61/105/143 97/129/219 100/128/220
s 22
f 67/106/148 68/107/147 104/131/221 103/130/222
s 20
f 68/107/152 66/108/151 102/132/223 104/131/224
s 40
f 62/49/225 69/102/226 105/134/227 98/133/228
s 20
f 70/109/155 63/103/140 99/127/218 106/135/229
s 25
f 71/110/159 72/111/158 108/137/230 107/136/231
s 21
f 74/112/163 71/110/162 107/136/232 110/138/233
s 41
f 76/99/234 73/39/235 109/140/236 112/139/237
s 25
f 72/111/158 75/113/166 111/141/238 108/137/230
f 79/114/170 80/115/169 116/143/239 115/142/240
s 22
f 80/115/174 78/116/173 114/144/241 116/143/242
s 42
f 82/69/243 62/49/244 98/133/245 118/145/246
s 21
f 61/105/143 81/117/177 117/146/247 97/129/219
s 43
f 65/50/248 84/70/249 119/148/250 101/147/251
s 22
f 85/118/180 67/106/148 103/130/222 120/149/252
s 42
f 73/39/253 86/59/254 121/150/255 109/140/256
s 21
f 87/119/183 74/112/163 110/138/233 122/151/257
s 43
f 89/60/258 77/40/259 113/153/260 123/152/261
s 22
f 78/116/173 90/120/186 124/154/262 114/144/241
s 42
f 86/59/254 82/69/243 118/145/246 121/150/255
s 21
f 81/117/177 87/119/183 122/151/257 117/146/247
s 43
f 84/70/249 89/60/258 123/152/261 119/148/250
s 22
f 90/120/186 85/118/180 120/149/252 124/154/262
s 41
f 77/40/263 91/83/264 125/155/265 113/153/266
s 25
f 92/123/197 79/114/170 115/142/240 126/156/267
s 40
f 95/86/268 65/50/269 101/147/270 127/157/271
s 20
f 66/108/151 96/126/204 128/158/272 102/132/223
s 41
f 91/83/264 76/99/234 112/139/237 125/155/265
s 25
f 75/113/166 92/123/197 126/156/267 111/141/238
s 40
f 69/102/226 95/86/268 127/157/271 105/134/227
s 20
f 96/126/204 70/109/155 106/135/229 128/158/272
